<svg xmlns="http://www.w3.org/2000/svg" viewBox="0 0 233.77 59.5"><defs><style>.cls-1,.cls-2{fill:#fff;}.cls-1{fill-rule:evenodd;}</style></defs><title>logo-educon</title><g id="Layer_2" data-name="Layer 2"><g id="Layer_1-2" data-name="Layer 1"><path class="cls-1" d="M33.76,17.63a8.48,8.48,0,0,1-2.21-5.18c.14-1.7,1-2.51,1.9-3.94.46-.72.86-1,1.3-1.76,1.09-1.81,1.16-3.19,1.64-5.17.39,1.64,2.42,4.68,1.25,7.33A10.86,10.86,0,0,1,36,11.19a19.84,19.84,0,0,0-1.53,2.05c-.86,1.5-.82,2.29-.68,4.39"></path><path class="cls-1" d="M31.5,10a5.3,5.3,0,0,1-1.38-3.23A5,5,0,0,1,31.3,4.32c.29-.45.54-.64.82-1.1a9.69,9.69,0,0,0,1-3.22c.24,1,1.5,2.91.77,4.57a7.45,7.45,0,0,1-1,1.42,12.82,12.82,0,0,0-1,1.27A3.88,3.88,0,0,0,31.5,10"></path><path class="cls-1" d="M36.88,10.71c4.6-1.26,11-2.67,14.58-2.78a65.27,65.27,0,0,0-14.14,2.25Z"></path><path class="cls-1" d="M48.3,17.43c-10,2.72-27.35,4.76-28,2.42-.54-1.82,4-4.77,10.92-7.34a1.11,1.11,0,0,1,.13-.65c-9.15,3.08-15.53,7-14.6,9.21,1.05,2.44,18.22.76,31.58-3.64"></path><path class="cls-1" d="M31.64,48.5V47h.3c.42,0,.88,0,.88.72s-.44.83-1,.83ZM34.51,51c0-.14,0-.17-.17-.17H34l-1-1.7a1.47,1.47,0,0,0,.92-1.49c0-1.52-1.26-1.56-1.88-1.56H30.14c-.13,0-.17,0-.17.17v.44c0,.14,0,.17.17.17h.42v4h-.42c-.13,0-.17,0-.17.17v.44c0,.14,0,.16.17.16H32c.14,0,.17,0,.17-.16V51c0-.14,0-.17-.17-.17h-.38V49.34H32l1.09,2.17c.05.11.05.11.19.11h1c.13,0,.17,0,.17-.16Z"></path><path class="cls-1" d="M44.12,46.1c-.15,0-.18,0-.18.17v.44c0,.14,0,.17.17.17h.41v4h-.41c-.14,0-.17,0-.17.17v.44c0,.13,0,.16.17.16h1.83c1.44,0,2.37-.47,2.37-2.79S47.51,46.1,46,46.1Zm1.49,4.65V47h.31c.9,0,1.24.41,1.24,1.85s-.33,1.93-1.24,1.93Z"></path><path class="cls-1" d="M53.8,51c0-.14,0-.17-.17-.17h-.28L52,46.23c0-.11,0-.13-.18-.13H51c-.14,0-.15,0-.18.13l-1.41,4.62h-.24c-.14,0-.17,0-.17.17v.44c0,.14,0,.16.17.16h1.59c.14,0,.18,0,.18-.16V51c0-.14,0-.17-.18-.17h-.26l.18-.7H52l.19.7H52c-.14,0-.17,0-.17.17v.44c0,.14,0,.16.17.16h1.68c.13,0,.17,0,.17-.16Zm-2-1.6H50.76L51.11,48a8.33,8.33,0,0,0,.19-1.13h0A8.32,8.32,0,0,0,51.49,48Z"></path><path class="cls-1" d="M54.8,46.1c-.15,0-.18,0-.18.17v.44c0,.14,0,.17.17.17h.41v4h-.41c-.14,0-.17,0-.17.17v.44c0,.13,0,.16.17.16h1.83c1.43,0,2.37-.47,2.37-2.79s-.81-2.73-2.35-2.73Zm1.49,4.65V47h.3c.91,0,1.25.41,1.25,1.85s-.33,1.93-1.25,1.93Z"></path><path class="cls-1" d="M13.58,46.88H14c.14,0,.17,0,.17-.17v-.43c0-.15,0-.17-.17-.17H12.25c-.14,0-.17,0-.17.17v.43c0,.15,0,.17.17.17h.4v1.95c0,.26,0,.79,0,1.05h0a6.57,6.57,0,0,0-.49-1.17l-1.34-2.5c0-.09-.06-.1-.18-.1H9.42c-.14,0-.17,0-.17.17v.43c0,.15,0,.17.17.17h.41v4H9.42c-.14,0-.17,0-.17.16v.44c0,.14,0,.17.17.17h1.74c.14,0,.17,0,.17-.17V51c0-.14,0-.16-.17-.16h-.4v-2.3c0-.37,0-.62,0-.89h0a5,5,0,0,0,.48,1.1l1.48,2.75c.05.09.07.11.19.11h.53c.14,0,.17,0,.17-.17Z"></path><path class="cls-1" d="M7.5,46.88h.42c.13,0,.17,0,.17-.17v-.43c0-.15,0-.17-.17-.17H6c-.13,0-.17,0-.17.17v.43c0,.15,0,.17.17.17h.4v2.88c0,.58,0,1.14-.85,1.14s-.85-.56-.85-1.14V46.88h.4c.14,0,.17,0,.17-.17v-.43c0-.15,0-.17-.17-.17H3.21c-.14,0-.17,0-.17.17v.43c0,.15,0,.17.17.17h.41v2.88c0,1.2.42,2,1.94,2s1.94-.81,1.94-2Z"></path><path class="cls-1" d="M17.77,51c0-.14,0-.16-.17-.16h-.41v-4h.41c.14,0,.17,0,.17-.17v-.43c0-.15,0-.17-.17-.17H15.69c-.14,0-.17,0-.17.17v.43c0,.15,0,.17.17.17h.41v4h-.41c-.14,0-.17,0-.17.16v.44c0,.14,0,.17.17.17H17.6c.14,0,.17,0,.17-.17Z"></path><path class="cls-1" d="M37.9,47.59c0,.11,0,.14.14.14h.6c.1,0,.13,0,.13-.14V46.5c0-.32-.87-.53-1.44-.53a1.59,1.59,0,0,0-1.77,1.64,1.28,1.28,0,0,0,.7,1.25c.82.5,1.64.58,1.64,1.29a.65.65,0,0,1-.72.74,2.24,2.24,0,0,1-.76-.16V50c0-.11,0-.14-.14-.14h-.59c-.12,0-.14,0-.14.14v1.22c0,.35,1.05.55,1.66.55A1.64,1.64,0,0,0,39,50.06a1.59,1.59,0,0,0-.69-1.34c-.71-.53-1.66-.64-1.66-1.25s.39-.63.76-.63a1.49,1.49,0,0,1,.54.1Z"></path><path class="cls-1" d="M28.66,50.19c0-.14,0-.17-.17-.17H28c-.16,0-.17,0-.17.17v.57h-1V49.18h1.37c.14,0,.17,0,.17-.17v-.53c0-.15,0-.17-.17-.17H26.76V47h1v.49c0,.14,0,.17.17.17h.53c.13,0,.17,0,.17-.17V46.24c0-.12,0-.13-.17-.13H25.26c-.13,0-.16,0-.16.16v.44c0,.15,0,.17.16.17h.41v4h-.41c-.13,0-.16,0-.16.16v.44c0,.14,0,.17.16.17H28.5c.13,0,.16,0,.16-.17Z"></path><path class="cls-1" d="M23.41,46.88h.32c.11,0,.13,0,.13-.14v-.5c0-.11,0-.13-.13-.13h-1.1c-.1,0-.12,0-.14.11l-.79,3.22a12,12,0,0,0-.25,1.23h0c-.05-.37-.14-1-.2-1.23l-.71-3.22c0-.11,0-.11-.15-.11H19.21c-.12,0-.14,0-.14.13v.5c0,.11,0,.14.14.14h.31l1.29,4.75c0,.11,0,.13.18.13h.92c.13,0,.14,0,.18-.13Z"></path><path class="cls-1" d="M42.49,51c0-.14,0-.16-.17-.16h-.41v-4h.41c.13,0,.17,0,.17-.17v-.44c0-.14,0-.16-.17-.16H40.41c-.14,0-.17,0-.17.16v.44c0,.15,0,.17.17.17h.41v4h-.41c-.14,0-.17,0-.17.16v.44c0,.14,0,.17.17.17h1.91c.13,0,.17,0,.17-.17Z"></path><path class="cls-1" d="M46.66,39c0,.32,0,1.14-.06,2,0,.56-.21,1-.6,1.07a3,3,0,0,1-.59.08c-.12,0-.16.06-.16.11s.1.16.32.16c.58,0,1.82-.06,1.91-.06s1.33.06,2.41.06c.21,0,.31-.06.31-.16s0-.11-.16-.11a8.64,8.64,0,0,1-.88-.08c-.58-.08-.76-.51-.8-1.07-.06-.82-.06-1.64-.06-2V37.28a4.58,4.58,0,0,1,.3-2,62.5,62.5,0,0,1,3.73-6.2,3.66,3.66,0,0,1,1-1,1.89,1.89,0,0,1,.89-.27c.16,0,.26-.06.26-.16s-.12-.12-.26-.12c-.37,0-1.77.06-1.89.06s-.78-.06-1.29-.06c-.2,0-.31,0-.31.12s.11.14.29.2.31.27.31.54a1.93,1.93,0,0,1-.33,1c-.39.64-2.87,4.92-3.24,5.74-.36-.57-3.29-5.6-3.6-6.17a1.61,1.61,0,0,1-.25-.76.38.38,0,0,1,.25-.35c.18-.08.29-.1.29-.18s0-.14-.25-.14c-.76,0-1.51.06-1.64.06s-1.57-.06-1.94-.06c-.17,0-.25.06-.25.14s.1.14.2.14a1.91,1.91,0,0,1,.83.31,5.45,5.45,0,0,1,1.33,1.44c.69,1,3.31,5.31,3.44,5.63a4,4,0,0,1,.45,2Z"></path><path class="cls-1" d="M58.09,42.43A5,5,0,0,0,61,41.62a4,4,0,0,0,1.63-3.17c0-1.53-.54-2.72-2.8-4.5l-.53-.42c-1.8-1.47-2.34-2.12-2.34-3.21A2.17,2.17,0,0,1,59.3,28.1c1.76,0,2.28.8,2.39,1a3.24,3.24,0,0,1,.25,1c0,.15,0,.25.15.25s.14-.14.14-.45c0-1.3.07-1.93.07-2s0-.14-.19-.14a3.57,3.57,0,0,1-.67-.09,7.16,7.16,0,0,0-1.78-.19c-2.43,0-4,1.39-4,3.44,0,1.3.46,2.49,2.49,4.15l.86.71c1.64,1.36,2.2,2.12,2.2,3.44a2.56,2.56,0,0,1-2.74,2.55,2.6,2.6,0,0,1-2.83-1.95,3.26,3.26,0,0,1-.06-.71c0-.15,0-.21-.14-.21s-.13.09-.15.3-.1,1.08-.1,2c0,.52,0,.6.29.73a5.89,5.89,0,0,0,2.57.52"></path><path class="cls-1" d="M33.46,28.42l2.46,0c1.88,0,2.33.49,2.41,1.08l0,.21c0,.27.06.33.15.33s.14-.07.14-.25.06-1.56.06-2.15c0-.11,0-.23-.1-.23a9.58,9.58,0,0,1-1.93.19H29.34c-.23,0-1,0-1.54-.09a3.44,3.44,0,0,1-.86-.24c-.08,0-.16.26-.2.37s-.43,1.84-.43,2,0,.18.1.18.13,0,.19-.2a3.62,3.62,0,0,1,.34-.6c.31-.47.77-.61,2-.63l2.89,0v8.26c0,1.87,0,3.42-.1,4.24-.08.56-.17,1-.56,1.07a3,3,0,0,1-.59.08c-.12,0-.16.06-.16.11s.1.16.32.16c.58,0,1.81-.06,1.91-.06s1.33.06,2.41.06c.21,0,.31-.06.31-.16s0-.11-.16-.11a8.64,8.64,0,0,1-.88-.08c-.58-.08-.7-.51-.76-1.07-.1-.82-.1-2.37-.1-4.24Z"></path><path class="cls-1" d="M17.53,36.68c0,1.87,0,3.41-.1,4.23-.08.57-.17,1-.56,1.08a3.06,3.06,0,0,1-.59.07c-.12,0-.16.06-.16.12s.1.16.32.16c.58,0,1.81-.06,1.91-.06.57,0,1.88.12,4.83.12.76,0,.92,0,1.05-.51A18.86,18.86,0,0,0,24.49,40c0-.14,0-.3-.12-.3s-.14.08-.18.3c-.13.8-.37,1.19-.88,1.4a5.42,5.42,0,0,1-1.87.22c-1.92,0-2.21-.26-2.27-1.6,0-.41,0-2.68,0-3.34V35a.13.13,0,0,1,.14-.14c.33,0,2.26,0,2.79.1.77.08.94.41,1,.68a2,2,0,0,1,.08.65c0,.1,0,.17.13.17s.14-.21.14-.37,0-.85.08-1.25c.06-.64.15-1,.15-1.09s0-.15-.09-.15-.16.09-.3.25-.44.23-.91.27-2.86,0-3.11,0c-.1,0-.12-.06-.12-.19V28.54c0-.14,0-.2.12-.2s2.34,0,2.68.06c1.05.12,1.25.35,1.38.67a2,2,0,0,1,.12.7c0,.16,0,.25.16.25s.12-.11.13-.21.08-1.09.1-1.29c.06-.55.16-.78.16-.92s0-.17-.08-.17-.18.07-.27.09a5.17,5.17,0,0,1-.84.1c-.45,0-4.34,0-4.48,0s-1.33-.06-2.21-.06c-.21,0-.31,0-.31.16s.08.12.16.12a4.65,4.65,0,0,1,.66.05c.65.14.8.45.84,1.12s0,1.17,0,4.21Z"></path><path class="cls-1" d="M8.82,42.64a11.45,11.45,0,0,0,3.52-.45c.35-.16.39-.19.5-.57a19.82,19.82,0,0,0,.44-2.49c0-.16,0-.3-.14-.3s-.16.08-.2.3a3.62,3.62,0,0,1-.72,1.64c-.78.8-1.94,1-3.4,1A7,7,0,0,1,1.76,34.6c0-2,.33-3.73,1.76-5.1.68-.67,1.9-1.43,4.5-1.43a6.5,6.5,0,0,1,3.91,1.12,2.73,2.73,0,0,1,.82,2c0,.27,0,.41.15.41s.16-.12.18-.41,0-1.37.06-2,.1-.94.1-1.1,0-.19-.26-.21a18.76,18.76,0,0,1-2-.29,16.48,16.48,0,0,0-2.84-.24c-3,0-4.79.92-6,2.09A7.79,7.79,0,0,0,0,34.75a7.46,7.46,0,0,0,2.37,5.78c1.54,1.39,3.51,2.11,6.45,2.11"></path><path class="cls-1" d="M66.77,42.18v-.35h.31l.07,0a.1.1,0,0,1,.06,0,.2.2,0,0,1,0,.09.3.3,0,0,1,0,.1.18.18,0,0,1-.07,0l-.08,0h-.29Zm-.17-.48v1.08h.17v-.47H67l.29.47h.18l-.31-.48a.44.44,0,0,0,.21-.08A.29.29,0,0,0,67.4,42a.27.27,0,0,0-.1-.24A.43.43,0,0,0,67,41.7Zm-.4.53a.73.73,0,0,1,.06-.3.72.72,0,0,1,.16-.25.81.81,0,0,1,.24-.17.77.77,0,0,1,.3-.06.73.73,0,0,1,.3.06.81.81,0,0,1,.24.17.72.72,0,0,1,.16.25.73.73,0,0,1,.06.3.82.82,0,0,1-.22.57.63.63,0,0,1-.24.16A.73.73,0,0,1,67,43a.78.78,0,0,1-.3-.07.63.63,0,0,1-.24-.16.82.82,0,0,1-.22-.57m-.17,0a.87.87,0,0,0,.08.37,1,1,0,0,0,.2.3,1,1,0,0,0,.29.19,1.15,1.15,0,0,0,.36.07,1,1,0,0,0,.36-.07,1.17,1.17,0,0,0,.3-.19,1,1,0,0,0,.2-1,1,1,0,0,0-.2-.29,1,1,0,0,0-.3-.19.86.86,0,0,0-.36-.07.92.92,0,0,0-.36.07.81.81,0,0,0-.29.19,1,1,0,0,0-.2.29.86.86,0,0,0-.08.36"></path><rect class="cls-2" x="77.98" y="13.96" width="1.26" height="45.54"></rect><path class="cls-2" d="M101.45,30.39v2.45h-.8a5.57,5.57,0,0,0-.25-.7,2.56,2.56,0,0,0-.26-.5,1.24,1.24,0,0,0-.31-.33.85.85,0,0,0-.39-.16,2.76,2.76,0,0,0-.54,0H96.33v4.25h1.74a1.25,1.25,0,0,0,.56-.1.83.83,0,0,0,.33-.34,3.22,3.22,0,0,0,.26-.77H100v3.12h-.76a3,3,0,0,0-.25-.73.9.9,0,0,0-.33-.36,1.24,1.24,0,0,0-.57-.1H96.33v4.68h2.52a2.34,2.34,0,0,0,.65-.07,1,1,0,0,0,.43-.24,1.44,1.44,0,0,0,.31-.43,3.46,3.46,0,0,0,.23-.56c.07-.19.15-.47.26-.83h.8l-.15,2.85H93.86v-.41a1.71,1.71,0,0,0,.68-.28.8.8,0,0,0,.22-.45,6.32,6.32,0,0,0,0-.9v-7a5.39,5.39,0,0,0,0-.82,1,1,0,0,0-.13-.4.6.6,0,0,0-.25-.22,2.48,2.48,0,0,0-.53-.19v-.4Z"></path><path class="cls-2" d="M108.71,32.64c0-.52,0-.88,0-1.08a3.39,3.39,0,0,0-.06-.53,1,1,0,0,0-.15-.33.62.62,0,0,0-.25-.2,2.74,2.74,0,0,0-.57-.15v-.41l2-.09h.48v9.4q0,.63,0,.9a1.24,1.24,0,0,0,.1.44.59.59,0,0,0,.26.26,1.74,1.74,0,0,0,.61.19v.43l-1.92.07h-.48l.09-1.32-.12,0a6.83,6.83,0,0,1-.89.82,3.43,3.43,0,0,1-.8.43,2.49,2.49,0,0,1-.91.17,2.41,2.41,0,0,1-2.06-1,5,5,0,0,1-.71-2.92,4.93,4.93,0,0,1,.47-2.26A3.14,3.14,0,0,1,105,34a3.64,3.64,0,0,1,1.8-.45,5,5,0,0,1,1,.08,4.27,4.27,0,0,1,.9.29Zm0,4a6.73,6.73,0,0,0-.06-1,2,2,0,0,0-.19-.64,1.39,1.39,0,0,0-.36-.44,1.5,1.5,0,0,0-.5-.26,2.48,2.48,0,0,0-.66-.08,1.76,1.76,0,0,0-1.58.83,4.38,4.38,0,0,0-.54,2.39,5,5,0,0,0,.44,2.37,1.46,1.46,0,0,0,1.36.81,2.43,2.43,0,0,0,.59-.06,1.69,1.69,0,0,0,.46-.2,2.46,2.46,0,0,0,.47-.36,2.28,2.28,0,0,0,.34-.44,1.92,1.92,0,0,0,.17-.44,2.87,2.87,0,0,0,.06-.65Z"></path><path class="cls-2" d="M112.25,33.7h2.31v4.14a10.18,10.18,0,0,0,.08,1.44,2.17,2.17,0,0,0,.22.75,1.1,1.1,0,0,0,.41.42,1.42,1.42,0,0,0,.74.17,1.52,1.52,0,0,0,.59-.12,2.52,2.52,0,0,0,.63-.43,1.9,1.9,0,0,0,.5-.6,1.57,1.57,0,0,0,.15-.7v-3c0-.31,0-.54,0-.7a2,2,0,0,0-.08-.38,1,1,0,0,0-.14-.23.66.66,0,0,0-.22-.16,2.56,2.56,0,0,0-.46-.16v-.4h2.32v5.55c0,.42,0,.72,0,.9a1.23,1.23,0,0,0,.11.44.62.62,0,0,0,.25.26,1.74,1.74,0,0,0,.61.19v.42l-1.86.08h-.5l0-1.32-.12,0a5.53,5.53,0,0,1-1.28,1.07,2.52,2.52,0,0,1-1.24.34,2.36,2.36,0,0,1-1.21-.29,1.78,1.78,0,0,1-.72-.87,4.69,4.69,0,0,1-.23-1.64V35.73a6.18,6.18,0,0,0,0-.94.84.84,0,0,0-.21-.41,1.54,1.54,0,0,0-.65-.28Z"></path><path class="cls-2" d="M127.67,33.89v1.69h-1a2.89,2.89,0,0,0-.34-.82,1.14,1.14,0,0,0-.48-.43,1.62,1.62,0,0,0-.66-.12,1.52,1.52,0,0,0-1,.36,2.43,2.43,0,0,0-.7,1.12,5.61,5.61,0,0,0-.26,1.82,7,7,0,0,0,.1,1.26,3,3,0,0,0,.33,1,1.84,1.84,0,0,0,.63.64,1.91,1.91,0,0,0,1,.22,2.46,2.46,0,0,0,1-.22,3.24,3.24,0,0,0,1-.77l.46.54a6.47,6.47,0,0,1-.73.7,3.61,3.61,0,0,1-1.39.66,3.67,3.67,0,0,1-.77.07,2.83,2.83,0,0,1-2.34-1,4.67,4.67,0,0,1-.81-2.95,4.83,4.83,0,0,1,.45-2.13,3.47,3.47,0,0,1,1.27-1.43,3.62,3.62,0,0,1,1.9-.5,8.28,8.28,0,0,1,2.36.32"></path><path class="cls-2" d="M133.64,40.3l-.12,0a4.88,4.88,0,0,1-1.33,1,3,3,0,0,1-1.32.3,2.45,2.45,0,0,1-1.08-.23,1.78,1.78,0,0,1-.73-.68,2,2,0,0,1-.25-1A2,2,0,0,1,130,37.85a8.27,8.27,0,0,1,3.51-.75v-.53a4.3,4.3,0,0,0-.16-1.33,1.29,1.29,0,0,0-.51-.71,1.64,1.64,0,0,0-.94-.23,1.48,1.48,0,0,0-1,.33,2,2,0,0,0-.58,1h-1.07V34.57c.52-.26,1-.46,1.3-.59a6.78,6.78,0,0,1,1-.3,4.62,4.62,0,0,1,1.05-.11,2.84,2.84,0,0,1,1.3.25,1.66,1.66,0,0,1,.73.79,4,4,0,0,1,.24,1.59V39c0,.4,0,.68,0,.85s0,.32,0,.46a.84.84,0,0,0,.13.33.57.57,0,0,0,.24.22,2.67,2.67,0,0,0,.51.19v.39H133.6Zm-.14-2.54a5.65,5.65,0,0,0-2.46.44,1.36,1.36,0,0,0-.82,1.28,1.24,1.24,0,0,0,.19.73.92.92,0,0,0,.46.37,2.25,2.25,0,0,0,.67.1,1.93,1.93,0,0,0,1-.27,2,2,0,0,0,.7-.69,1.5,1.5,0,0,0,.25-.81Z"></path><path class="cls-2" d="M143.11,33.89v1.69h-1a3.21,3.21,0,0,0-.34-.82,1.12,1.12,0,0,0-.47-.43,1.64,1.64,0,0,0-.67-.12,1.56,1.56,0,0,0-1,.36,2.5,2.5,0,0,0-.69,1.12,5.63,5.63,0,0,0-.25,1.82,7,7,0,0,0,.1,1.26,2.76,2.76,0,0,0,.33,1,1.73,1.73,0,0,0,.62.64,1.91,1.91,0,0,0,1,.22,2.46,2.46,0,0,0,1-.22,3.13,3.13,0,0,0,1-.77l.46.54a5.72,5.72,0,0,1-.73.7,3.54,3.54,0,0,1-.67.41,3.43,3.43,0,0,1-.72.25,3.67,3.67,0,0,1-.77.07,2.83,2.83,0,0,1-2.34-1,4.67,4.67,0,0,1-.81-2.95,4.83,4.83,0,0,1,.45-2.13,3.36,3.36,0,0,1,1.28-1.43,3.55,3.55,0,0,1,1.89-.5,8.28,8.28,0,0,1,2.36.32"></path><path class="cls-2" d="M144.39,41.06a2.26,2.26,0,0,0,.45-.17.62.62,0,0,0,.23-.2,1.11,1.11,0,0,0,.15-.4,5.32,5.32,0,0,0,.05-.83V35.92c0-.34,0-.62,0-.83a1.38,1.38,0,0,0-.11-.51.7.7,0,0,0-.3-.29,2.31,2.31,0,0,0-.56-.15V33.7l1.89-.07h.49v5.8a4.25,4.25,0,0,0,.07,1,.69.69,0,0,0,.25.42,1.77,1.77,0,0,0,.59.24v.4h-3.18Zm2.32-9h-1.49V30.53h1.49Z"></path><path class="cls-2" d="M152.54,41.6a3.29,3.29,0,0,1-2.58-1,4.31,4.31,0,0,1-.89-2.94,5,5,0,0,1,.47-2.26A3.13,3.13,0,0,1,150.82,34a3.73,3.73,0,0,1,1.85-.45,3.32,3.32,0,0,1,2.63,1,4.26,4.26,0,0,1,.89,2.9,5.16,5.16,0,0,1-.45,2.27,3,3,0,0,1-1.27,1.38,3.83,3.83,0,0,1-1.93.47m-1.93-4.12a5,5,0,0,0,.53,2.57,1.67,1.67,0,0,0,1.52.9,1.61,1.61,0,0,0,.92-.26,1.94,1.94,0,0,0,.62-.71,3.44,3.44,0,0,0,.35-1,7,7,0,0,0,.11-1.23,6.12,6.12,0,0,0-.27-2,2.36,2.36,0,0,0-.72-1.16,1.56,1.56,0,0,0-1-.37,1.66,1.66,0,0,0-1.5.85,4.65,4.65,0,0,0-.52,2.42m4.07-7.72v.41l-2.57,2.61-.53-.42,1.68-2.6Z"></path><path class="cls-2" d="M165.73,41.46h-3.2v-.4a2.42,2.42,0,0,0,.46-.17.55.55,0,0,0,.23-.2,1,1,0,0,0,.15-.4,5.27,5.27,0,0,0,0-.82V37.34c0-.38,0-.72,0-1a3.6,3.6,0,0,0-.1-.76,1.88,1.88,0,0,0-.19-.46,1.2,1.2,0,0,0-.26-.29,1.22,1.22,0,0,0-.34-.18,1.7,1.7,0,0,0-1.11.05,2.85,2.85,0,0,0-1.13,1,1.52,1.52,0,0,0-.15.69v3a5.19,5.19,0,0,0,.06,1,.8.8,0,0,0,.25.42,2,2,0,0,0,.6.24v.4h-3.18v-.4a2.26,2.26,0,0,0,.45-.17.62.62,0,0,0,.23-.2,1,1,0,0,0,.14-.4,5,5,0,0,0,.06-.83V35.92c0-.34,0-.62,0-.83a1.38,1.38,0,0,0-.11-.51.7.7,0,0,0-.3-.29,2.28,2.28,0,0,0-.57-.15V33.7l1.9-.07h.5L160,35l.11,0a7.69,7.69,0,0,1,1-.87,3.42,3.42,0,0,1,.75-.4,2.14,2.14,0,0,1,.8-.14,2.68,2.68,0,0,1,.78.1A1.6,1.6,0,0,1,164,34a1.66,1.66,0,0,1,.43.52,2.54,2.54,0,0,1,.26.75,5.75,5.75,0,0,1,.09,1.12v3c0,.38,0,.65,0,.82a1.5,1.5,0,0,0,.12.39.59.59,0,0,0,.24.23,2.48,2.48,0,0,0,.53.19Z"></path><path class="cls-2" d="M178.43,30.62v2.25h-.8a3.55,3.55,0,0,0-.5-1.12,1.72,1.72,0,0,0-.7-.6,2.27,2.27,0,0,0-1-.18,2.23,2.23,0,0,0-1.49.56,3.65,3.65,0,0,0-1,1.67,8.48,8.48,0,0,0-.37,2.69,10.65,10.65,0,0,0,.3,2.72,3.66,3.66,0,0,0,.91,1.7,2.09,2.09,0,0,0,1.48.57,2.8,2.8,0,0,0,1.09-.19,1.78,1.78,0,0,0,.71-.6,5.27,5.27,0,0,0,.55-1.22h.8v2.32a11.61,11.61,0,0,1-1.56.3,13.5,13.5,0,0,1-1.76.11A3.69,3.69,0,0,1,172,40.2,6.88,6.88,0,0,1,170.94,36a7.76,7.76,0,0,1,.55-3,4.24,4.24,0,0,1,4.15-2.73,11.43,11.43,0,0,1,1.36.07,13,13,0,0,1,1.43.29"></path><path class="cls-2" d="M183.64,41.6a3.3,3.3,0,0,1-2.58-1,4.3,4.3,0,0,1-.88-2.94,5,5,0,0,1,.46-2.26A3.13,3.13,0,0,1,181.92,34a3.75,3.75,0,0,1,1.85-.45,3.31,3.31,0,0,1,2.63,1,4.26,4.26,0,0,1,.89,2.9,5.31,5.31,0,0,1-.44,2.27,3,3,0,0,1-1.27,1.38,3.87,3.87,0,0,1-1.94.47m-1.93-4.12a5,5,0,0,0,.53,2.57,1.67,1.67,0,0,0,1.52.9,1.61,1.61,0,0,0,.92-.26,1.94,1.94,0,0,0,.62-.71,3.19,3.19,0,0,0,.35-1,7,7,0,0,0,.11-1.23,6.12,6.12,0,0,0-.27-2,2.43,2.43,0,0,0-.71-1.16,1.6,1.6,0,0,0-1-.37,1.66,1.66,0,0,0-1.51.85,4.65,4.65,0,0,0-.52,2.42"></path><path class="cls-2" d="M196.83,41.46h-3.2v-.4a2.42,2.42,0,0,0,.46-.17.55.55,0,0,0,.23-.2,1.11,1.11,0,0,0,.15-.4,4.25,4.25,0,0,0,.05-.82V37.34c0-.38,0-.72,0-1a4.29,4.29,0,0,0-.11-.76,1.33,1.33,0,0,0-.19-.46,1.2,1.2,0,0,0-.26-.29,1.22,1.22,0,0,0-.34-.18,1.49,1.49,0,0,0-.51-.07,1.53,1.53,0,0,0-.6.12,2.42,2.42,0,0,0-.63.44,2.24,2.24,0,0,0-.5.61,1.52,1.52,0,0,0-.15.69v3a5,5,0,0,0,.07,1,.73.73,0,0,0,.24.42,2,2,0,0,0,.6.24v.4h-3.18v-.4a2.26,2.26,0,0,0,.45-.17.55.55,0,0,0,.23-.2,1,1,0,0,0,.14-.4,4.13,4.13,0,0,0,.06-.83V35.92c0-.34,0-.62,0-.83a1.38,1.38,0,0,0-.11-.51.7.7,0,0,0-.3-.29,2.31,2.31,0,0,0-.56-.15V33.7l1.9-.07h.49L191.12,35l.12,0a7.75,7.75,0,0,1,1-.87,3.42,3.42,0,0,1,.75-.4,2.14,2.14,0,0,1,.8-.14,2.68,2.68,0,0,1,.78.1,1.6,1.6,0,0,1,.61.31,1.84,1.84,0,0,1,.44.52,2.87,2.87,0,0,1,.25.75,5.75,5.75,0,0,1,.09,1.12v3a7.82,7.82,0,0,0,0,.82,1.21,1.21,0,0,0,.11.39.66.66,0,0,0,.24.23,2.48,2.48,0,0,0,.53.19Z"></path><path class="cls-2" d="M197.72,34.11a1.83,1.83,0,0,0,.66-.22,1.31,1.31,0,0,0,.39-.42,2.39,2.39,0,0,0,.22-.64c0-.26.11-.64.17-1.13h1.15v2h2.62v.83h-2.62v3.61a10,10,0,0,0,.07,1.25,1.65,1.65,0,0,0,.24.73,1.22,1.22,0,0,0,.41.38,1.27,1.27,0,0,0,.59.11,1.38,1.38,0,0,0,.6-.13,2.18,2.18,0,0,0,.56-.39l.37.44a4.52,4.52,0,0,1-1.1.81,2.37,2.37,0,0,1-1.06.26,1.92,1.92,0,0,1-1.56-.63,3,3,0,0,1-.51-1.94v-4.5h-1.2Z"></path><path class="cls-2" d="M203.83,41.06a2.26,2.26,0,0,0,.45-.17.47.47,0,0,0,.22-.2.84.84,0,0,0,.15-.4,5.32,5.32,0,0,0,0-.83V35.92c0-.34,0-.62,0-.83a1.2,1.2,0,0,0-.12-.51.63.63,0,0,0-.29-.29,2.28,2.28,0,0,0-.57-.15V33.7l1.89-.07h.5v5.8a5.19,5.19,0,0,0,.06,1,.8.8,0,0,0,.25.42,1.75,1.75,0,0,0,.6.24v.4h-3.18Zm2.32-9h-1.5V30.53h1.5Z"></path><path class="cls-2" d="M216.35,41.46h-3.2v-.4a2.72,2.72,0,0,0,.46-.17.62.62,0,0,0,.23-.2,1,1,0,0,0,.14-.4,4.08,4.08,0,0,0,.06-.82V37.34c0-.38,0-.72,0-1a3.53,3.53,0,0,0-.11-.76,1.33,1.33,0,0,0-.19-.46,1,1,0,0,0-.26-.29,1.1,1.1,0,0,0-.34-.18,1.46,1.46,0,0,0-.51-.07,1.53,1.53,0,0,0-.6.12,2.39,2.39,0,0,0-.62.44,2.07,2.07,0,0,0-.5.61,1.52,1.52,0,0,0-.15.69v3a5.19,5.19,0,0,0,.06,1,.75.75,0,0,0,.25.42,1.77,1.77,0,0,0,.59.24v.4h-3.18v-.4a2.42,2.42,0,0,0,.46-.17.59.59,0,0,0,.22-.2,1,1,0,0,0,.15-.4,5.32,5.32,0,0,0,0-.83V35.92c0-.34,0-.62,0-.83a1.21,1.21,0,0,0-.11-.51.68.68,0,0,0-.29-.29,2.56,2.56,0,0,0-.57-.15V33.7l1.9-.07h.49L210.63,35l.12,0a7,7,0,0,1,1-.87,3.15,3.15,0,0,1,.74-.4,2.18,2.18,0,0,1,.8-.14,2.71,2.71,0,0,1,.79.1,1.68,1.68,0,0,1,.61.31,2,2,0,0,1,.43.52,2.86,2.86,0,0,1,.26.75,6.8,6.8,0,0,1,.08,1.12v3a7.82,7.82,0,0,0,0,.82,1.2,1.2,0,0,0,.12.39.63.63,0,0,0,.23.23,2.41,2.41,0,0,0,.54.19Z"></path><path class="cls-2" d="M217.52,33.7h2.32v4.14a10.5,10.5,0,0,0,.07,1.44,2.17,2.17,0,0,0,.22.75,1.1,1.1,0,0,0,.41.42,1.42,1.42,0,0,0,.74.17,1.52,1.52,0,0,0,.59-.12,2.75,2.75,0,0,0,.64-.43,2,2,0,0,0,.49-.6,1.44,1.44,0,0,0,.15-.7v-3a6.57,6.57,0,0,0,0-.7,1.14,1.14,0,0,0-.08-.38,1,1,0,0,0-.13-.23.84.84,0,0,0-.23-.16,2.39,2.39,0,0,0-.45-.16v-.4h2.31v5.55c0,.42,0,.72,0,.9a1.48,1.48,0,0,0,.11.44.69.69,0,0,0,.25.26,1.82,1.82,0,0,0,.61.19v.42l-1.86.08h-.49l.05-1.32-.12,0a5.55,5.55,0,0,1-1.29,1.07,2.49,2.49,0,0,1-1.23.34,2.37,2.37,0,0,1-1.22-.29,1.72,1.72,0,0,1-.71-.87,4.44,4.44,0,0,1-.24-1.64V35.73a6.18,6.18,0,0,0-.05-.94.76.76,0,0,0-.2-.41,1.6,1.6,0,0,0-.66-.28Z"></path><path class="cls-2" d="M231.59,40.3l-.13,0a5,5,0,0,1-1.32,1,3,3,0,0,1-1.32.3,2.5,2.5,0,0,1-1.09-.23,1.75,1.75,0,0,1-.72-.68,1.93,1.93,0,0,1-.25-1,2,2,0,0,1,1.17-1.83,8.28,8.28,0,0,1,3.52-.75v-.53a4.62,4.62,0,0,0-.16-1.33,1.26,1.26,0,0,0-.52-.71,1.6,1.6,0,0,0-.93-.23,1.53,1.53,0,0,0-1,.33,2.11,2.11,0,0,0-.58,1h-1.06V34.57a14,14,0,0,1,1.3-.59,6.47,6.47,0,0,1,1-.3,4.68,4.68,0,0,1,1-.11,2.77,2.77,0,0,1,1.29.25,1.57,1.57,0,0,1,.73.79,3.81,3.81,0,0,1,.25,1.59v3.67a3.24,3.24,0,0,0,0,.46.84.84,0,0,0,.13.33.61.61,0,0,0,.23.22,2.82,2.82,0,0,0,.52.19v.39h-2.22Zm-.14-2.54a5.7,5.7,0,0,0-2.47.44,1.36,1.36,0,0,0-.82,1.28,1.24,1.24,0,0,0,.19.73.94.94,0,0,0,.47.37,2.25,2.25,0,0,0,.67.1,1.87,1.87,0,0,0,1-.27,2,2,0,0,0,.71-.69,1.5,1.5,0,0,0,.25-.81Z"></path></g></g></svg>